<?xml version="1.0" standalone="no"?>
<!DOCTYPE svg PUBLIC "-//W3C//DTD SVG 20010904//EN"
 "http://www.w3.org/TR/2001/REC-SVG-20010904/DTD/svg10.dtd">
<svg version="1.0" xmlns="http://www.w3.org/2000/svg"
 width="500.000000pt" height="500.000000pt" viewBox="0 0 500.000000 500.000000"
 preserveAspectRatio="xMidYMid meet">

<g transform="translate(0.000000,500.000000) scale(0.100000,-0.100000)"
fill="#000000" stroke="none">
<path d="M1770 3751 c-173 -37 -332 -122 -455 -245 -132 -131 -205 -265 -242
-444 -22 -106 -13 -327 16 -430 76 -263 259 -464 519 -573 81 -33 231 -69 295
-69 l37 0 0 -490 0 -490 578 0 c631 0 687 4 839 58 224 79 340 216 359 421 16
173 -63 334 -219 446 l-28 20 48 51 c94 99 137 237 115 368 -24 150 -107 260
-248 333 -174 91 -312 105 -974 101 l-465 -3 -3 -133 c-3 -132 -3 -133 -25
-126 -70 21 -155 107 -182 182 -9 26 -19 84 -22 128 -5 67 -2 95 16 154 19 62
31 82 80 131 67 67 125 89 232 89 110 0 169 -27 265 -124 l81 -82 204 182
c112 100 205 186 207 192 6 20 -180 197 -254 240 -84 50 -202 94 -307 116
-107 22 -354 21 -467 -3z m1150 -1464 c20 -10 26 -21 28 -55 3 -40 1 -43 -32
-57 -25 -11 -74 -15 -171 -15 l-135 0 73 70 72 69 70 1 c39 0 81 -6 95 -13z
m67 -628 c34 -13 43 -26 43 -64 0 -68 -28 -78 -242 -83 l-178 -4 0 81 0 81
174 0 c99 0 187 -5 203 -11z"/>
</g>
</svg>
